<svg width="828" height="502" viewBox="0 0 828 502" fill="none" xmlns="http://www.w3.org/2000/svg">
<g filter="url(#filter0_b_12_230)">
<rect width="827" height="502" rx="50" fill="white" fill-opacity="0.15"/>
<rect x="0.5" y="0.5" width="826" height="501" rx="49.5" stroke="url(#paint0_linear_12_230)"/>
</g>
<path d="M43.758 79V51.7H45.435L58.11 73.579H57.213L69.849 51.7H71.487L71.526 79H69.576L69.537 54.703H70.083L58.11 75.373H57.135L45.123 54.703H45.708V79H43.758ZM82.7991 64.258H97.5801V66.013H82.7991V64.258ZM83.0331 77.206H99.8811V79H81.0441V51.7H99.2961V53.494H83.0331V77.206ZM104.208 79V77.596L123.669 52.714L123.864 53.494H104.442V51.7H125.775V53.104L106.353 77.986L106.119 77.206H126.204V79H104.208ZM127.783 79L140.341 51.7H142.33L154.888 79H152.743L140.887 52.948H141.745L129.928 79H127.783ZM132.385 71.317L133.048 69.64H149.389L150.052 71.317H132.385ZM159.844 79V51.7H161.521L180.982 76.543H180.085V51.7H182.074V79H180.436L160.936 54.157H161.833V79H159.844ZM202.294 79.195C198.914 79.195 196.249 78.207 194.299 76.231C192.349 74.255 191.374 71.317 191.374 67.417V51.7H193.363V67.339C193.363 70.745 194.143 73.267 195.703 74.905C197.263 76.543 199.473 77.362 202.333 77.362C205.167 77.362 207.364 76.543 208.924 74.905C210.484 73.267 211.264 70.745 211.264 67.339V51.7H213.253V67.417C213.253 71.317 212.278 74.255 210.328 76.231C208.378 78.207 205.7 79.195 202.294 79.195ZM222.533 79V51.7H232.322C234.61 51.7 236.573 52.064 238.211 52.792C239.849 53.52 241.11 54.573 241.994 55.951C242.878 57.303 243.32 58.954 243.32 60.904C243.32 62.802 242.878 64.44 241.994 65.818C241.11 67.17 239.849 68.223 238.211 68.977C236.573 69.705 234.61 70.069 232.322 70.069H223.625L224.522 69.133V79H222.533ZM241.487 79L234.389 69.094H236.651L243.749 79H241.487ZM224.522 69.25L223.625 68.314H232.322C235.26 68.314 237.483 67.664 238.991 66.364C240.525 65.064 241.292 63.244 241.292 60.904C241.292 58.538 240.525 56.718 238.991 55.444C237.483 54.144 235.26 53.494 232.322 53.494H223.625L224.522 52.519V69.25ZM260.619 79V51.7H270.408C272.696 51.7 274.659 52.064 276.297 52.792C277.935 53.52 279.196 54.573 280.08 55.951C280.964 57.303 281.406 58.954 281.406 60.904C281.406 62.802 280.964 64.44 280.08 65.818C279.196 67.17 277.935 68.223 276.297 68.977C274.659 69.705 272.696 70.069 270.408 70.069H261.711L262.608 69.133V79H260.619ZM279.573 79L272.475 69.094H274.737L281.835 79H279.573ZM262.608 69.25L261.711 68.314H270.408C273.346 68.314 275.569 67.664 277.077 66.364C278.611 65.064 279.378 63.244 279.378 60.904C279.378 58.538 278.611 56.718 277.077 55.444C275.569 54.144 273.346 53.494 270.408 53.494H261.711L262.608 52.519V69.25ZM284.126 79L296.684 51.7H298.673L311.231 79H309.086L297.23 52.948H298.088L286.271 79H284.126ZM288.728 71.317L289.391 69.64H305.732L306.395 71.317H288.728ZM336.428 51.7H338.417V79H336.428V51.7ZM318.176 79H316.187V51.7H318.176V79ZM336.662 66.013H317.942V64.258H336.662V66.013ZM347.95 79V51.7H349.627L362.302 73.579H361.405L374.041 51.7H375.679L375.718 79H373.768L373.729 54.703H374.275L362.302 75.373H361.327L349.315 54.703H349.9V79H347.95ZM380.674 79L393.232 51.7H395.221L407.779 79H405.634L393.778 52.948H394.636L382.819 79H380.674ZM385.276 71.317L385.939 69.64H402.28L402.943 71.317H385.276ZM412.735 79V51.7H414.412L433.873 76.543H432.976V51.7H434.965V79H433.327L413.827 54.157H414.724V79H412.735Z" fill="#60FFFF"/>
<path d="M45.858 120V118.878L52.26 112.608C52.8467 112.036 53.2867 111.537 53.58 111.112C53.8733 110.672 54.0713 110.261 54.174 109.88C54.2767 109.499 54.328 109.139 54.328 108.802C54.328 107.907 54.02 107.203 53.404 106.69C52.8027 106.177 51.908 105.92 50.72 105.92C49.8107 105.92 49.004 106.059 48.3 106.338C47.6107 106.617 47.0167 107.049 46.518 107.636L45.396 106.668C45.9973 105.964 46.7673 105.421 47.706 105.04C48.6447 104.659 49.6933 104.468 50.852 104.468C51.8933 104.468 52.7953 104.637 53.558 104.974C54.3207 105.297 54.9073 105.773 55.318 106.404C55.7433 107.035 55.956 107.775 55.956 108.626C55.956 109.125 55.8827 109.616 55.736 110.1C55.604 110.584 55.3547 111.097 54.988 111.64C54.636 112.168 54.1153 112.769 53.426 113.444L47.552 119.208L47.112 118.592H56.66V120H45.858ZM64.7429 120.132C63.5549 120.132 62.4989 119.824 61.5749 119.208C60.6509 118.577 59.9249 117.683 59.3969 116.524C58.8689 115.351 58.6049 113.943 58.6049 112.3C58.6049 110.657 58.8689 109.257 59.3969 108.098C59.9249 106.925 60.6509 106.03 61.5749 105.414C62.4989 104.783 63.5549 104.468 64.7429 104.468C65.9309 104.468 66.9869 104.783 67.9109 105.414C68.8349 106.03 69.5609 106.925 70.0889 108.098C70.6316 109.257 70.9029 110.657 70.9029 112.3C70.9029 113.943 70.6316 115.351 70.0889 116.524C69.5609 117.683 68.8349 118.577 67.9109 119.208C66.9869 119.824 65.9309 120.132 64.7429 120.132ZM64.7429 118.68C65.6523 118.68 66.4443 118.438 67.1189 117.954C67.7936 117.455 68.3216 116.737 68.7029 115.798C69.0843 114.845 69.2749 113.679 69.2749 112.3C69.2749 110.921 69.0843 109.763 68.7029 108.824C68.3216 107.871 67.7936 107.152 67.1189 106.668C66.4443 106.169 65.6523 105.92 64.7429 105.92C63.8629 105.92 63.0783 106.169 62.3889 106.668C61.6996 107.152 61.1643 107.871 60.7829 108.824C60.4016 109.763 60.2109 110.921 60.2109 112.3C60.2109 113.679 60.4016 114.845 60.7829 115.798C61.1643 116.737 61.6996 117.455 62.3889 117.954C63.0783 118.438 63.8629 118.68 64.7429 118.68ZM79.3093 120.132C78.1213 120.132 77.0653 119.824 76.1413 119.208C75.2173 118.577 74.4913 117.683 73.9633 116.524C73.4353 115.351 73.1713 113.943 73.1713 112.3C73.1713 110.657 73.4353 109.257 73.9633 108.098C74.4913 106.925 75.2173 106.03 76.1413 105.414C77.0653 104.783 78.1213 104.468 79.3093 104.468C80.4973 104.468 81.5533 104.783 82.4773 105.414C83.4013 106.03 84.1273 106.925 84.6553 108.098C85.198 109.257 85.4693 110.657 85.4693 112.3C85.4693 113.943 85.198 115.351 84.6553 116.524C84.1273 117.683 83.4013 118.577 82.4773 119.208C81.5533 119.824 80.4973 120.132 79.3093 120.132ZM79.3093 118.68C80.2187 118.68 81.0107 118.438 81.6853 117.954C82.36 117.455 82.888 116.737 83.2693 115.798C83.6507 114.845 83.8413 113.679 83.8413 112.3C83.8413 110.921 83.6507 109.763 83.2693 108.824C82.888 107.871 82.36 107.152 81.6853 106.668C81.0107 106.169 80.2187 105.92 79.3093 105.92C78.4293 105.92 77.6447 106.169 76.9553 106.668C76.266 107.152 75.7307 107.871 75.3493 108.824C74.968 109.763 74.7773 110.921 74.7773 112.3C74.7773 113.679 74.968 114.845 75.3493 115.798C75.7307 116.737 76.266 117.455 76.9553 117.954C77.6447 118.438 78.4293 118.68 79.3093 118.68ZM87.4518 120V118.878L93.8538 112.608C94.4404 112.036 94.8804 111.537 95.1738 111.112C95.4671 110.672 95.6651 110.261 95.7678 109.88C95.8704 109.499 95.9218 109.139 95.9218 108.802C95.9218 107.907 95.6138 107.203 94.9978 106.69C94.3964 106.177 93.5018 105.92 92.3138 105.92C91.4044 105.92 90.5978 106.059 89.8938 106.338C89.2044 106.617 88.6104 107.049 88.1118 107.636L86.9898 106.668C87.5911 105.964 88.3611 105.421 89.2998 105.04C90.2384 104.659 91.2871 104.468 92.4458 104.468C93.4871 104.468 94.3891 104.637 95.1518 104.974C95.9144 105.297 96.5011 105.773 96.9118 106.404C97.3371 107.035 97.5498 107.775 97.5498 108.626C97.5498 109.125 97.4764 109.616 97.3298 110.1C97.1978 110.584 96.9484 111.097 96.5818 111.64C96.2298 112.168 95.7091 112.769 95.0198 113.444L89.1458 119.208L88.7058 118.592H98.2538V120H87.4518ZM106.175 114.72V113.356H111.939V114.72H106.175ZM121.522 120V104.6H127.286C128.591 104.6 129.713 104.813 130.652 105.238C131.59 105.649 132.309 106.25 132.808 107.042C133.321 107.819 133.578 108.765 133.578 109.88C133.578 110.965 133.321 111.904 132.808 112.696C132.309 113.473 131.59 114.075 130.652 114.5C129.713 114.925 128.591 115.138 127.286 115.138H122.424L123.15 114.368V120H121.522ZM123.15 114.5L122.424 113.708H127.242C128.782 113.708 129.948 113.378 130.74 112.718C131.546 112.043 131.95 111.097 131.95 109.88C131.95 108.648 131.546 107.695 130.74 107.02C129.948 106.345 128.782 106.008 127.242 106.008H122.424L123.15 105.238V114.5ZM137.098 120V104.6H142.862C144.167 104.6 145.289 104.813 146.228 105.238C147.167 105.649 147.885 106.25 148.384 107.042C148.897 107.819 149.154 108.765 149.154 109.88C149.154 110.965 148.897 111.904 148.384 112.696C147.885 113.473 147.167 114.075 146.228 114.5C145.289 114.911 144.167 115.116 142.862 115.116H138L138.726 114.368V120H137.098ZM147.614 120L143.654 114.412H145.414L149.396 120H147.614ZM138.726 114.5L138 113.73H142.818C144.358 113.73 145.524 113.393 146.316 112.718C147.123 112.043 147.526 111.097 147.526 109.88C147.526 108.648 147.123 107.695 146.316 107.02C145.524 106.345 144.358 106.008 142.818 106.008H138L138.726 105.238V114.5ZM154.448 111.486H162.588V112.872H154.448V111.486ZM154.624 118.592H163.886V120H152.996V104.6H163.556V106.008H154.624V118.592ZM171.959 120.132C170.815 120.132 169.715 119.949 168.659 119.582C167.618 119.201 166.811 118.717 166.239 118.13L166.877 116.876C167.42 117.404 168.146 117.851 169.055 118.218C169.979 118.57 170.947 118.746 171.959 118.746C172.927 118.746 173.712 118.629 174.313 118.394C174.929 118.145 175.376 117.815 175.655 117.404C175.948 116.993 176.095 116.539 176.095 116.04C176.095 115.439 175.919 114.955 175.567 114.588C175.23 114.221 174.782 113.935 174.225 113.73C173.668 113.51 173.052 113.319 172.377 113.158C171.702 112.997 171.028 112.828 170.353 112.652C169.678 112.461 169.055 112.212 168.483 111.904C167.926 111.596 167.471 111.193 167.119 110.694C166.782 110.181 166.613 109.513 166.613 108.692C166.613 107.929 166.811 107.233 167.207 106.602C167.618 105.957 168.241 105.443 169.077 105.062C169.913 104.666 170.984 104.468 172.289 104.468C173.154 104.468 174.012 104.593 174.863 104.842C175.714 105.077 176.447 105.407 177.063 105.832L176.513 107.13C175.853 106.69 175.149 106.367 174.401 106.162C173.668 105.957 172.956 105.854 172.267 105.854C171.343 105.854 170.58 105.979 169.979 106.228C169.378 106.477 168.93 106.815 168.637 107.24C168.358 107.651 168.219 108.12 168.219 108.648C168.219 109.249 168.388 109.733 168.725 110.1C169.077 110.467 169.532 110.753 170.089 110.958C170.661 111.163 171.284 111.347 171.959 111.508C172.634 111.669 173.301 111.845 173.961 112.036C174.636 112.227 175.252 112.476 175.809 112.784C176.381 113.077 176.836 113.473 177.173 113.972C177.525 114.471 177.701 115.123 177.701 115.93C177.701 116.678 177.496 117.375 177.085 118.02C176.674 118.651 176.044 119.164 175.193 119.56C174.357 119.941 173.279 120.132 171.959 120.132ZM182.7 111.486H190.84V112.872H182.7V111.486ZM182.876 118.592H192.138V120H181.248V104.6H191.808V106.008H182.876V118.592ZM195.965 120V104.6H197.307L207.933 117.976H207.229V104.6H208.835V120H207.493L196.889 106.624H197.593V120H195.965ZM216.854 120V106.008H211.442V104.6H223.894V106.008H218.482V120H216.854Z" fill="white"/>
<circle cx="667.5" cy="160.5" r="159.5" stroke="url(#paint1_linear_12_230)" stroke-width="2"/>
<line y1="-0.5" x2="320.198" y2="-0.5" transform="matrix(0.304427 -0.952536 0.979412 0.20187 507 326)" stroke="url(#paint2_linear_12_230)"/>
<line x1="821.174" y1="249.188" x2="729.079" y2="22.6692" stroke="url(#paint3_linear_12_230)"/>
<line x1="593.922" y1="271.352" x2="728.919" y2="22.2437" stroke="url(#paint4_linear_12_230)"/>
<line x1="736.459" y1="266.464" x2="604.037" y2="21.2386" stroke="url(#paint5_linear_12_230)"/>
<path d="M45.95 439L40 421.5H41.35L47 438.225H46.325L52.15 421.5H53.375L59.15 438.225H58.5L64.2 421.5H65.45L59.525 439H58.175L52.575 422.825H52.9L47.3 439H45.95ZM70.2502 429.55H79.7252V430.675H70.2502V429.55ZM70.4002 437.85H81.2002V439H69.1252V421.5H80.8252V422.65H70.4002V437.85ZM85.8488 439V421.5H93.1488C95.0322 421.5 96.5072 421.883 97.5738 422.65C98.6405 423.417 99.1738 424.525 99.1738 425.975C99.1738 426.925 98.9488 427.725 98.4988 428.375C98.0488 429.025 97.4238 429.517 96.6238 429.85C95.8405 430.167 94.9572 430.325 93.9738 430.325L94.4238 429.825C95.6238 429.825 96.6488 430 97.4988 430.35C98.3488 430.7 98.9905 431.208 99.4238 431.875C99.8738 432.542 100.099 433.375 100.099 434.375C100.099 435.842 99.5655 436.983 98.4988 437.8C97.4322 438.6 95.8155 439 93.6488 439H85.8488ZM87.1238 437.9H93.6488C95.3322 437.9 96.6155 437.617 97.4988 437.05C98.3822 436.467 98.8238 435.542 98.8238 434.275C98.8238 433.025 98.3822 432.117 97.4988 431.55C96.6155 430.967 95.3322 430.675 93.6488 430.675H86.9738V429.575H93.0988C94.6155 429.575 95.7905 429.283 96.6238 428.7C97.4572 428.117 97.8738 427.242 97.8738 426.075C97.8738 424.925 97.4572 424.058 96.6238 423.475C95.7905 422.892 94.6155 422.6 93.0988 422.6H87.1238V437.9ZM111.069 439V421.5H117.994C119.844 421.5 121.469 421.875 122.869 422.625C124.269 423.375 125.352 424.408 126.119 425.725C126.902 427.042 127.294 428.55 127.294 430.25C127.294 431.95 126.902 433.458 126.119 434.775C125.352 436.092 124.269 437.125 122.869 437.875C121.469 438.625 119.844 439 117.994 439H111.069ZM112.344 437.85H117.894C119.544 437.85 120.977 437.525 122.194 436.875C123.41 436.225 124.352 435.333 125.019 434.2C125.685 433.05 126.019 431.733 126.019 430.25C126.019 428.767 125.685 427.458 125.019 426.325C124.352 425.175 123.41 424.275 122.194 423.625C120.977 422.975 119.544 422.65 117.894 422.65H112.344V437.85ZM132.848 429.55H142.323V430.675H132.848V429.55ZM132.998 437.85H143.798V439H131.723V421.5H143.423V422.65H132.998V437.85ZM153.046 439.125C151.746 439.125 150.513 438.908 149.346 438.475C148.196 438.025 147.305 437.45 146.671 436.75L147.246 435.8C147.846 436.417 148.663 436.942 149.696 437.375C150.746 437.792 151.855 438 153.021 438C154.188 438 155.138 437.85 155.871 437.55C156.621 437.233 157.171 436.817 157.521 436.3C157.888 435.783 158.071 435.208 158.071 434.575C158.071 433.825 157.871 433.225 157.471 432.775C157.071 432.325 156.546 431.967 155.896 431.7C155.246 431.433 154.538 431.208 153.771 431.025C153.005 430.842 152.23 430.65 151.446 430.45C150.663 430.233 149.946 429.958 149.296 429.625C148.646 429.292 148.121 428.842 147.721 428.275C147.338 427.692 147.146 426.942 147.146 426.025C147.146 425.192 147.363 424.425 147.796 423.725C148.23 423.025 148.905 422.458 149.821 422.025C150.738 421.592 151.913 421.375 153.346 421.375C154.313 421.375 155.263 421.517 156.196 421.8C157.146 422.083 157.955 422.467 158.621 422.95L158.146 423.975C157.413 423.475 156.621 423.108 155.771 422.875C154.938 422.625 154.13 422.5 153.346 422.5C152.23 422.5 151.305 422.658 150.571 422.975C149.838 423.292 149.296 423.717 148.946 424.25C148.596 424.767 148.421 425.35 148.421 426C148.421 426.75 148.613 427.35 148.996 427.8C149.396 428.25 149.921 428.608 150.571 428.875C151.221 429.142 151.938 429.367 152.721 429.55C153.505 429.733 154.28 429.933 155.046 430.15C155.813 430.35 156.521 430.617 157.171 430.95C157.821 431.283 158.346 431.733 158.746 432.3C159.146 432.867 159.346 433.6 159.346 434.5C159.346 435.317 159.121 436.083 158.671 436.8C158.221 437.5 157.53 438.067 156.596 438.5C155.68 438.917 154.496 439.125 153.046 439.125ZM163.681 439V421.5H164.956V439H163.681ZM178.529 439.125C177.212 439.125 175.996 438.908 174.879 438.475C173.762 438.025 172.787 437.4 171.954 436.6C171.137 435.8 170.504 434.867 170.054 433.8C169.604 432.717 169.379 431.533 169.379 430.25C169.379 428.967 169.604 427.792 170.054 426.725C170.504 425.642 171.146 424.7 171.979 423.9C172.812 423.1 173.779 422.483 174.879 422.05C175.996 421.6 177.221 421.375 178.554 421.375C179.821 421.375 180.996 421.575 182.079 421.975C183.162 422.375 184.087 422.975 184.854 423.775L184.054 424.625C183.287 423.875 182.446 423.342 181.529 423.025C180.629 422.708 179.646 422.55 178.579 422.55C177.446 422.55 176.396 422.742 175.429 423.125C174.462 423.508 173.621 424.05 172.904 424.75C172.187 425.45 171.629 426.267 171.229 427.2C170.846 428.133 170.654 429.15 170.654 430.25C170.654 431.35 170.846 432.367 171.229 433.3C171.629 434.233 172.187 435.05 172.904 435.75C173.621 436.45 174.462 436.992 175.429 437.375C176.396 437.758 177.446 437.95 178.579 437.95C179.612 437.95 180.587 437.792 181.504 437.475C182.437 437.158 183.287 436.633 184.054 435.9L184.779 436.875C183.996 437.625 183.054 438.192 181.954 438.575C180.871 438.942 179.729 439.125 178.529 439.125ZM183.554 436.75V430.325H184.779V436.875L183.554 436.75ZM190.39 439V421.5H191.465L203.94 437.425H203.365V421.5H204.64V439H203.59L191.09 423.075H191.665V439H190.39ZM211.876 429.55H221.351V430.675H211.876V429.55ZM212.026 437.85H222.826V439H210.751V421.5H222.451V422.65H212.026V437.85ZM227.475 439V421.5H233.75C235.216 421.5 236.475 421.733 237.525 422.2C238.575 422.667 239.383 423.342 239.95 424.225C240.516 425.092 240.8 426.15 240.8 427.4C240.8 428.617 240.516 429.667 239.95 430.55C239.383 431.417 238.575 432.092 237.525 432.575C236.475 433.042 235.216 433.275 233.75 433.275H228.175L228.75 432.675V439H227.475ZM239.625 439L235.075 432.65H236.525L241.075 439H239.625ZM228.75 432.75L228.175 432.15H233.75C235.633 432.15 237.058 431.733 238.025 430.9C239.008 430.067 239.5 428.9 239.5 427.4C239.5 425.883 239.008 424.717 238.025 423.9C237.058 423.067 235.633 422.65 233.75 422.65H228.175L228.75 422.025V432.75ZM261.689 443.975C260.006 443.975 258.456 443.692 257.039 443.125C255.639 442.575 254.422 441.792 253.389 440.775C252.372 439.775 251.589 438.592 251.039 437.225C250.489 435.842 250.214 434.317 250.214 432.65C250.214 430.983 250.489 429.458 251.039 428.075C251.606 426.692 252.406 425.5 253.439 424.5C254.472 423.5 255.697 422.733 257.114 422.2C258.531 421.65 260.089 421.375 261.789 421.375C263.472 421.375 265.014 421.642 266.414 422.175C267.814 422.708 269.031 423.467 270.064 424.45C271.097 425.417 271.889 426.583 272.439 427.95C273.006 429.3 273.289 430.792 273.289 432.425C273.289 433.842 273.131 435.05 272.814 436.05C272.497 437.033 272.047 437.792 271.464 438.325C270.881 438.842 270.206 439.1 269.439 439.1C268.656 439.1 268.022 438.867 267.539 438.4C267.056 437.933 266.814 437.275 266.814 436.425V434.225L267.039 432.55L266.789 430.375V426.225H267.939V436.1C267.939 436.817 268.097 437.325 268.414 437.625C268.731 437.925 269.122 438.075 269.589 438.075C270.139 438.075 270.614 437.858 271.014 437.425C271.431 436.975 271.747 436.333 271.964 435.5C272.197 434.667 272.314 433.65 272.314 432.45C272.314 430.933 272.056 429.558 271.539 428.325C271.039 427.075 270.314 426 269.364 425.1C268.431 424.2 267.322 423.517 266.039 423.05C264.756 422.567 263.339 422.325 261.789 422.325C260.239 422.325 258.814 422.575 257.514 423.075C256.214 423.575 255.097 424.283 254.164 425.2C253.231 426.117 252.506 427.208 251.989 428.475C251.489 429.725 251.239 431.117 251.239 432.65C251.239 434.167 251.489 435.558 251.989 436.825C252.489 438.092 253.197 439.183 254.114 440.1C255.047 441.033 256.156 441.75 257.439 442.25C258.722 442.75 260.139 443 261.689 443C262.439 443 263.239 442.908 264.089 442.725C264.956 442.558 265.747 442.283 266.464 441.9L266.789 442.825C266.056 443.208 265.222 443.492 264.289 443.675C263.356 443.875 262.489 443.975 261.689 443.975ZM261.489 439.1C260.306 439.1 259.239 438.825 258.289 438.275C257.356 437.708 256.614 436.933 256.064 435.95C255.531 434.967 255.264 433.85 255.264 432.6C255.264 431.333 255.531 430.217 256.064 429.25C256.614 428.283 257.356 427.525 258.289 426.975C259.239 426.408 260.306 426.125 261.489 426.125C262.656 426.125 263.689 426.392 264.589 426.925C265.506 427.458 266.222 428.208 266.739 429.175C267.272 430.142 267.539 431.283 267.539 432.6C267.539 433.9 267.272 435.042 266.739 436.025C266.222 437.008 265.514 437.767 264.614 438.3C263.714 438.833 262.672 439.1 261.489 439.1ZM261.614 438.05C262.614 438.05 263.506 437.825 264.289 437.375C265.072 436.908 265.689 436.267 266.139 435.45C266.589 434.633 266.814 433.683 266.814 432.6C266.814 431.5 266.589 430.55 266.139 429.75C265.689 428.933 265.072 428.3 264.289 427.85C263.506 427.4 262.614 427.175 261.614 427.175C260.631 427.175 259.747 427.4 258.964 427.85C258.181 428.3 257.564 428.933 257.114 429.75C256.664 430.567 256.439 431.517 256.439 432.6C256.439 433.667 256.664 434.617 257.114 435.45C257.564 436.267 258.181 436.908 258.964 437.375C259.747 437.825 260.631 438.05 261.614 438.05ZM291.615 439.125C290.298 439.125 289.082 438.908 287.965 438.475C286.848 438.025 285.873 437.4 285.04 436.6C284.223 435.8 283.59 434.867 283.14 433.8C282.69 432.717 282.465 431.533 282.465 430.25C282.465 428.967 282.69 427.792 283.14 426.725C283.59 425.642 284.232 424.7 285.065 423.9C285.898 423.1 286.865 422.483 287.965 422.05C289.082 421.6 290.307 421.375 291.64 421.375C292.907 421.375 294.082 421.575 295.165 421.975C296.248 422.375 297.173 422.975 297.94 423.775L297.14 424.625C296.373 423.875 295.532 423.342 294.615 423.025C293.715 422.708 292.732 422.55 291.665 422.55C290.532 422.55 289.482 422.742 288.515 423.125C287.548 423.508 286.707 424.05 285.99 424.75C285.273 425.45 284.715 426.267 284.315 427.2C283.932 428.133 283.74 429.15 283.74 430.25C283.74 431.35 283.932 432.367 284.315 433.3C284.715 434.233 285.273 435.05 285.99 435.75C286.707 436.45 287.548 436.992 288.515 437.375C289.482 437.758 290.532 437.95 291.665 437.95C292.698 437.95 293.673 437.792 294.59 437.475C295.523 437.158 296.373 436.633 297.14 435.9L297.865 436.875C297.082 437.625 296.14 438.192 295.04 438.575C293.957 438.942 292.815 439.125 291.615 439.125ZM296.64 436.75V430.325H297.865V436.875L296.64 436.75ZM300.551 439L308.601 421.5H309.876L317.926 439H316.551L308.951 422.3H309.501L301.926 439H300.551ZM303.501 434.075L303.926 433H314.401L314.826 434.075H303.501ZM321.103 439V421.5H322.378V439H321.103ZM328.476 439V421.5H329.551L342.026 437.425H341.451V421.5H342.726V439H341.676L329.176 423.075H329.751V439H328.476ZM359.858 439.125C358.558 439.125 357.325 438.908 356.158 438.475C355.008 438.025 354.116 437.45 353.483 436.75L354.058 435.8C354.658 436.417 355.475 436.942 356.508 437.375C357.558 437.792 358.666 438 359.833 438C361 438 361.95 437.85 362.683 437.55C363.433 437.233 363.983 436.817 364.333 436.3C364.7 435.783 364.883 435.208 364.883 434.575C364.883 433.825 364.683 433.225 364.283 432.775C363.883 432.325 363.358 431.967 362.708 431.7C362.058 431.433 361.35 431.208 360.583 431.025C359.816 430.842 359.041 430.65 358.258 430.45C357.475 430.233 356.758 429.958 356.108 429.625C355.458 429.292 354.933 428.842 354.533 428.275C354.15 427.692 353.958 426.942 353.958 426.025C353.958 425.192 354.175 424.425 354.608 423.725C355.041 423.025 355.716 422.458 356.633 422.025C357.55 421.592 358.725 421.375 360.158 421.375C361.125 421.375 362.075 421.517 363.008 421.8C363.958 422.083 364.766 422.467 365.433 422.95L364.958 423.975C364.225 423.475 363.433 423.108 362.583 422.875C361.75 422.625 360.941 422.5 360.158 422.5C359.041 422.5 358.116 422.658 357.383 422.975C356.65 423.292 356.108 423.717 355.758 424.25C355.408 424.767 355.233 425.35 355.233 426C355.233 426.75 355.425 427.35 355.808 427.8C356.208 428.25 356.733 428.608 357.383 428.875C358.033 429.142 358.75 429.367 359.533 429.55C360.316 429.733 361.091 429.933 361.858 430.15C362.625 430.35 363.333 430.617 363.983 430.95C364.633 431.283 365.158 431.733 365.558 432.3C365.958 432.867 366.158 433.6 366.158 434.5C366.158 435.317 365.933 436.083 365.483 436.8C365.033 437.5 364.341 438.067 363.408 438.5C362.491 438.917 361.308 439.125 359.858 439.125ZM377.917 439.125C376.617 439.125 375.409 438.908 374.292 438.475C373.192 438.025 372.226 437.4 371.392 436.6C370.576 435.783 369.942 434.842 369.492 433.775C369.042 432.692 368.817 431.517 368.817 430.25C368.817 428.983 369.042 427.817 369.492 426.75C369.942 425.667 370.576 424.725 371.392 423.925C372.226 423.108 373.192 422.483 374.292 422.05C375.409 421.6 376.617 421.375 377.917 421.375C379.217 421.375 380.417 421.6 381.517 422.05C382.634 422.483 383.601 423.1 384.417 423.9C385.234 424.7 385.867 425.642 386.317 426.725C386.784 427.792 387.017 428.967 387.017 430.25C387.017 431.533 386.784 432.717 386.317 433.8C385.867 434.867 385.234 435.8 384.417 436.6C383.601 437.4 382.634 438.025 381.517 438.475C380.417 438.908 379.217 439.125 377.917 439.125ZM377.917 437.95C379.034 437.95 380.067 437.758 381.017 437.375C381.967 436.992 382.792 436.45 383.492 435.75C384.192 435.05 384.734 434.233 385.117 433.3C385.517 432.367 385.717 431.35 385.717 430.25C385.717 429.133 385.517 428.117 385.117 427.2C384.734 426.267 384.192 425.45 383.492 424.75C382.792 424.05 381.967 423.508 381.017 423.125C380.067 422.742 379.034 422.55 377.917 422.55C376.801 422.55 375.767 422.742 374.817 423.125C373.867 423.508 373.034 424.05 372.317 424.75C371.617 425.45 371.067 426.267 370.667 427.2C370.284 428.117 370.092 429.133 370.092 430.25C370.092 431.35 370.284 432.367 370.667 433.3C371.067 434.233 371.617 435.05 372.317 435.75C373.034 436.45 373.867 436.992 374.817 437.375C375.767 437.758 376.801 437.95 377.917 437.95ZM391.44 439V421.5H392.715V437.85H402.79V439H391.44ZM412.572 439.125C410.405 439.125 408.697 438.492 407.447 437.225C406.197 435.958 405.572 434.075 405.572 431.575V421.5H406.847V431.525C406.847 433.708 407.347 435.325 408.347 436.375C409.347 437.425 410.764 437.95 412.597 437.95C414.414 437.95 415.822 437.425 416.822 436.375C417.822 435.325 418.322 433.708 418.322 431.525V421.5H419.597V431.575C419.597 434.075 418.972 435.958 417.722 437.225C416.472 438.492 414.755 439.125 412.572 439.125ZM428.554 439V422.65H422.254V421.5H436.129V422.65H429.829V439H428.554ZM439.291 439V421.5H440.566V439H439.291ZM454.089 439.125C452.789 439.125 451.581 438.908 450.464 438.475C449.364 438.025 448.398 437.4 447.564 436.6C446.748 435.783 446.114 434.842 445.664 433.775C445.214 432.692 444.989 431.517 444.989 430.25C444.989 428.983 445.214 427.817 445.664 426.75C446.114 425.667 446.748 424.725 447.564 423.925C448.398 423.108 449.364 422.483 450.464 422.05C451.581 421.6 452.789 421.375 454.089 421.375C455.389 421.375 456.589 421.6 457.689 422.05C458.806 422.483 459.773 423.1 460.589 423.9C461.406 424.7 462.039 425.642 462.489 426.725C462.956 427.792 463.189 428.967 463.189 430.25C463.189 431.533 462.956 432.717 462.489 433.8C462.039 434.867 461.406 435.8 460.589 436.6C459.773 437.4 458.806 438.025 457.689 438.475C456.589 438.908 455.389 439.125 454.089 439.125ZM454.089 437.95C455.206 437.95 456.239 437.758 457.189 437.375C458.139 436.992 458.964 436.45 459.664 435.75C460.364 435.05 460.906 434.233 461.289 433.3C461.689 432.367 461.889 431.35 461.889 430.25C461.889 429.133 461.689 428.117 461.289 427.2C460.906 426.267 460.364 425.45 459.664 424.75C458.964 424.05 458.139 423.508 457.189 423.125C456.239 422.742 455.206 422.55 454.089 422.55C452.973 422.55 451.939 422.742 450.989 423.125C450.039 423.508 449.206 424.05 448.489 424.75C447.789 425.45 447.239 426.267 446.839 427.2C446.456 428.117 446.264 429.133 446.264 430.25C446.264 431.35 446.456 432.367 446.839 433.3C447.239 434.233 447.789 435.05 448.489 435.75C449.206 436.45 450.039 436.992 450.989 437.375C451.939 437.758 452.973 437.95 454.089 437.95ZM467.612 439V421.5H468.687L481.162 437.425H480.587V421.5H481.862V439H480.812L468.312 423.075H468.887V439H467.612Z" fill="white"/>
<path d="M55.5 457C55.5 456.175 54.825 455.5 54 455.5H42C41.175 455.5 40.5 456.175 40.5 457V466C40.5 466.825 41.175 467.5 42 467.5H54C54.825 467.5 55.5 466.825 55.5 466V457ZM54 457L48 460.75L42 457H54ZM54 466H42V458.5L48 462.25L54 458.5V466Z" fill="white"/>
<path d="M70.415 458.31C71.055 458.31 71.62 458.44 72.11 458.7C72.61 458.95 73 459.34 73.28 459.87C73.57 460.39 73.715 461.06 73.715 461.88V466.5H71.375V462.24C71.375 461.59 71.24 461.11 70.97 460.8C70.7 460.49 70.32 460.335 69.83 460.335C69.49 460.335 69.185 460.415 68.915 460.575C68.645 460.725 68.435 460.955 68.285 461.265C68.135 461.575 68.06 461.97 68.06 462.45V466.5H65.72V462.24C65.72 461.59 65.585 461.11 65.315 460.8C65.055 460.49 64.68 460.335 64.19 460.335C63.85 460.335 63.545 460.415 63.275 460.575C63.005 460.725 62.795 460.955 62.645 461.265C62.495 461.575 62.42 461.97 62.42 462.45V466.5H60.08V458.43H62.315V460.635L61.895 459.99C62.175 459.44 62.57 459.025 63.08 458.745C63.6 458.455 64.19 458.31 64.85 458.31C65.59 458.31 66.235 458.5 66.785 458.88C67.345 459.25 67.715 459.82 67.895 460.59L67.07 460.365C67.34 459.735 67.77 459.235 68.36 458.865C68.96 458.495 69.645 458.31 70.415 458.31ZM79.876 466.62C78.956 466.62 78.146 466.44 77.446 466.08C76.756 465.72 76.221 465.23 75.841 464.61C75.461 463.98 75.271 463.265 75.271 462.465C75.271 461.655 75.456 460.94 75.826 460.32C76.206 459.69 76.721 459.2 77.371 458.85C78.021 458.49 78.756 458.31 79.576 458.31C80.366 458.31 81.076 458.48 81.706 458.82C82.346 459.15 82.851 459.63 83.221 460.26C83.591 460.88 83.776 461.625 83.776 462.495C83.776 462.585 83.771 462.69 83.761 462.81C83.751 462.92 83.741 463.025 83.731 463.125H77.176V461.76H82.501L81.601 462.165C81.601 461.745 81.516 461.38 81.346 461.07C81.176 460.76 80.941 460.52 80.641 460.35C80.341 460.17 79.991 460.08 79.591 460.08C79.191 460.08 78.836 460.17 78.526 460.35C78.226 460.52 77.991 460.765 77.821 461.085C77.651 461.395 77.566 461.765 77.566 462.195V462.555C77.566 462.995 77.661 463.385 77.851 463.725C78.051 464.055 78.326 464.31 78.676 464.49C79.036 464.66 79.456 464.745 79.936 464.745C80.366 464.745 80.741 464.68 81.061 464.55C81.391 464.42 81.691 464.225 81.961 463.965L83.206 465.315C82.836 465.735 82.371 466.06 81.811 466.29C81.251 466.51 80.606 466.62 79.876 466.62ZM84.7057 466.5V465.09L89.4757 459.45L89.8807 460.23H84.8107V458.43H91.7707V459.84L87.0007 465.48L86.5807 464.7H91.9057V466.5H84.7057ZM98.3552 466.5V464.925L98.2052 464.58V461.76C98.2052 461.26 98.0502 460.87 97.7402 460.59C97.4402 460.31 96.9752 460.17 96.3452 460.17C95.9152 460.17 95.4902 460.24 95.0702 460.38C94.6602 460.51 94.3102 460.69 94.0202 460.92L93.1802 459.285C93.6202 458.975 94.1502 458.735 94.7702 458.565C95.3902 458.395 96.0202 458.31 96.6602 458.31C97.8902 458.31 98.8452 458.6 99.5252 459.18C100.205 459.76 100.545 460.665 100.545 461.895V466.5H98.3552ZM95.8952 466.62C95.2652 466.62 94.7252 466.515 94.2752 466.305C93.8252 466.085 93.4802 465.79 93.2402 465.42C93.0002 465.05 92.8802 464.635 92.8802 464.175C92.8802 463.695 92.9952 463.275 93.2252 462.915C93.4652 462.555 93.8402 462.275 94.3502 462.075C94.8602 461.865 95.5252 461.76 96.3452 461.76H98.4902V463.125H96.6002C96.0502 463.125 95.6702 463.215 95.4602 463.395C95.2602 463.575 95.1602 463.8 95.1602 464.07C95.1602 464.37 95.2752 464.61 95.5052 464.79C95.7452 464.96 96.0702 465.045 96.4802 465.045C96.8702 465.045 97.2202 464.955 97.5302 464.775C97.8402 464.585 98.0652 464.31 98.2052 463.95L98.5652 465.03C98.3952 465.55 98.0852 465.945 97.6352 466.215C97.1852 466.485 96.6052 466.62 95.8952 466.62ZM107.568 458.31C108.208 458.31 108.778 458.44 109.278 458.7C109.788 458.95 110.188 459.34 110.478 459.87C110.768 460.39 110.913 461.06 110.913 461.88V466.5H108.573V462.24C108.573 461.59 108.428 461.11 108.138 460.8C107.858 460.49 107.458 460.335 106.938 460.335C106.568 460.335 106.233 460.415 105.933 460.575C105.643 460.725 105.413 460.96 105.243 461.28C105.083 461.6 105.003 462.01 105.003 462.51V466.5H102.663V458.43H104.898V460.665L104.478 459.99C104.768 459.45 105.183 459.035 105.723 458.745C106.263 458.455 106.878 458.31 107.568 458.31ZM116.439 466.62C115.769 466.62 115.169 466.49 114.639 466.23C114.119 465.97 113.714 465.575 113.424 465.045C113.134 464.505 112.989 463.82 112.989 462.99V458.43H115.329V462.645C115.329 463.315 115.469 463.81 115.749 464.13C116.039 464.44 116.444 464.595 116.964 464.595C117.324 464.595 117.644 464.52 117.924 464.37C118.204 464.21 118.424 463.97 118.584 463.65C118.744 463.32 118.824 462.91 118.824 462.42V458.43H121.164V466.5H118.944V464.28L119.349 464.925C119.079 465.485 118.679 465.91 118.149 466.2C117.629 466.48 117.059 466.62 116.439 466.62ZM123.332 466.5V458.43H125.567V460.71L125.252 460.05C125.492 459.48 125.877 459.05 126.407 458.76C126.937 458.46 127.582 458.31 128.342 458.31V460.47C128.242 460.46 128.152 460.455 128.072 460.455C127.992 460.445 127.907 460.44 127.817 460.44C127.177 460.44 126.657 460.625 126.257 460.995C125.867 461.355 125.672 461.92 125.672 462.69V466.5H123.332ZM129.733 466.5V458.43H131.968V460.71L131.653 460.05C131.893 459.48 132.278 459.05 132.808 458.76C133.338 458.46 133.983 458.31 134.743 458.31V460.47C134.643 460.46 134.553 460.455 134.473 460.455C134.393 460.445 134.308 460.44 134.218 460.44C133.578 460.44 133.058 460.625 132.658 460.995C132.268 461.355 132.073 461.92 132.073 462.69V466.5H129.733ZM140.557 466.5V464.925L140.407 464.58V461.76C140.407 461.26 140.252 460.87 139.942 460.59C139.642 460.31 139.177 460.17 138.547 460.17C138.117 460.17 137.692 460.24 137.272 460.38C136.862 460.51 136.512 460.69 136.222 460.92L135.382 459.285C135.822 458.975 136.352 458.735 136.972 458.565C137.592 458.395 138.222 458.31 138.862 458.31C140.092 458.31 141.047 458.6 141.727 459.18C142.407 459.76 142.747 460.665 142.747 461.895V466.5H140.557ZM138.097 466.62C137.467 466.62 136.927 466.515 136.477 466.305C136.027 466.085 135.682 465.79 135.442 465.42C135.202 465.05 135.082 464.635 135.082 464.175C135.082 463.695 135.197 463.275 135.427 462.915C135.667 462.555 136.042 462.275 136.552 462.075C137.062 461.865 137.727 461.76 138.547 461.76H140.692V463.125H138.802C138.252 463.125 137.872 463.215 137.662 463.395C137.462 463.575 137.362 463.8 137.362 464.07C137.362 464.37 137.477 464.61 137.707 464.79C137.947 464.96 138.272 465.045 138.682 465.045C139.072 465.045 139.422 464.955 139.732 464.775C140.042 464.585 140.267 464.31 140.407 463.95L140.767 465.03C140.597 465.55 140.287 465.945 139.837 466.215C139.387 466.485 138.807 466.62 138.097 466.62ZM149.77 458.31C150.41 458.31 150.98 458.44 151.48 458.7C151.99 458.95 152.39 459.34 152.68 459.87C152.97 460.39 153.115 461.06 153.115 461.88V466.5H150.775V462.24C150.775 461.59 150.63 461.11 150.34 460.8C150.06 460.49 149.66 460.335 149.14 460.335C148.77 460.335 148.435 460.415 148.135 460.575C147.845 460.725 147.615 460.96 147.445 461.28C147.285 461.6 147.205 462.01 147.205 462.51V466.5H144.865V455.37H147.205V460.665L146.68 459.99C146.97 459.45 147.385 459.035 147.925 458.745C148.465 458.455 149.08 458.31 149.77 458.31ZM165.571 458.31C166.211 458.31 166.776 458.44 167.266 458.7C167.766 458.95 168.156 459.34 168.436 459.87C168.726 460.39 168.871 461.06 168.871 461.88V466.5H166.531V462.24C166.531 461.59 166.396 461.11 166.126 460.8C165.856 460.49 165.476 460.335 164.986 460.335C164.646 460.335 164.341 460.415 164.071 460.575C163.801 460.725 163.591 460.955 163.441 461.265C163.291 461.575 163.216 461.97 163.216 462.45V466.5H160.876V462.24C160.876 461.59 160.741 461.11 160.471 460.8C160.211 460.49 159.836 460.335 159.346 460.335C159.006 460.335 158.701 460.415 158.431 460.575C158.161 460.725 157.951 460.955 157.801 461.265C157.651 461.575 157.576 461.97 157.576 462.45V466.5H155.236V458.43H157.471V460.635L157.051 459.99C157.331 459.44 157.726 459.025 158.236 458.745C158.756 458.455 159.346 458.31 160.006 458.31C160.746 458.31 161.391 458.5 161.941 458.88C162.501 459.25 162.871 459.82 163.051 460.59L162.226 460.365C162.496 459.735 162.926 459.235 163.516 458.865C164.116 458.495 164.801 458.31 165.571 458.31ZM175.919 466.5V464.925L175.769 464.58V461.76C175.769 461.26 175.614 460.87 175.304 460.59C175.004 460.31 174.539 460.17 173.909 460.17C173.479 460.17 173.054 460.24 172.634 460.38C172.224 460.51 171.874 460.69 171.584 460.92L170.744 459.285C171.184 458.975 171.714 458.735 172.334 458.565C172.954 458.395 173.584 458.31 174.224 458.31C175.454 458.31 176.409 458.6 177.089 459.18C177.769 459.76 178.109 460.665 178.109 461.895V466.5H175.919ZM173.459 466.62C172.829 466.62 172.289 466.515 171.839 466.305C171.389 466.085 171.044 465.79 170.804 465.42C170.564 465.05 170.444 464.635 170.444 464.175C170.444 463.695 170.559 463.275 170.789 462.915C171.029 462.555 171.404 462.275 171.914 462.075C172.424 461.865 173.089 461.76 173.909 461.76H176.054V463.125H174.164C173.614 463.125 173.234 463.215 173.024 463.395C172.824 463.575 172.724 463.8 172.724 464.07C172.724 464.37 172.839 464.61 173.069 464.79C173.309 464.96 173.634 465.045 174.044 465.045C174.434 465.045 174.784 464.955 175.094 464.775C175.404 464.585 175.629 464.31 175.769 463.95L176.129 465.03C175.959 465.55 175.649 465.945 175.199 466.215C174.749 466.485 174.169 466.62 173.459 466.62ZM185.131 458.31C185.771 458.31 186.341 458.44 186.841 458.7C187.351 458.95 187.751 459.34 188.041 459.87C188.331 460.39 188.476 461.06 188.476 461.88V466.5H186.136V462.24C186.136 461.59 185.991 461.11 185.701 460.8C185.421 460.49 185.021 460.335 184.501 460.335C184.131 460.335 183.796 460.415 183.496 460.575C183.206 460.725 182.976 460.96 182.806 461.28C182.646 461.6 182.566 462.01 182.566 462.51V466.5H180.226V458.43H182.461V460.665L182.041 459.99C182.331 459.45 182.746 459.035 183.286 458.745C183.826 458.455 184.441 458.31 185.131 458.31ZM189.939 466.5V464.925L193.989 461.1C194.309 460.81 194.544 460.55 194.694 460.32C194.844 460.09 194.944 459.88 194.994 459.69C195.054 459.5 195.084 459.325 195.084 459.165C195.084 458.745 194.939 458.425 194.649 458.205C194.369 457.975 193.954 457.86 193.404 457.86C192.964 457.86 192.554 457.945 192.174 458.115C191.804 458.285 191.489 458.55 191.229 458.91L189.459 457.77C189.859 457.17 190.419 456.695 191.139 456.345C191.859 455.995 192.689 455.82 193.629 455.82C194.409 455.82 195.089 455.95 195.669 456.21C196.259 456.46 196.714 456.815 197.034 457.275C197.364 457.735 197.529 458.285 197.529 458.925C197.529 459.265 197.484 459.605 197.394 459.945C197.314 460.275 197.144 460.625 196.884 460.995C196.634 461.365 196.264 461.78 195.774 462.24L192.414 465.405L191.949 464.52H197.874V466.5H189.939ZM203.377 466.68C202.517 466.68 201.747 466.47 201.067 466.05C200.387 465.62 199.852 465 199.462 464.19C199.072 463.38 198.877 462.4 198.877 461.25C198.877 460.1 199.072 459.12 199.462 458.31C199.852 457.5 200.387 456.885 201.067 456.465C201.747 456.035 202.517 455.82 203.377 455.82C204.247 455.82 205.017 456.035 205.687 456.465C206.367 456.885 206.902 457.5 207.292 458.31C207.682 459.12 207.877 460.1 207.877 461.25C207.877 462.4 207.682 463.38 207.292 464.19C206.902 465 206.367 465.62 205.687 466.05C205.017 466.47 204.247 466.68 203.377 466.68ZM203.377 464.625C203.787 464.625 204.142 464.51 204.442 464.28C204.752 464.05 204.992 463.685 205.162 463.185C205.342 462.685 205.432 462.04 205.432 461.25C205.432 460.46 205.342 459.815 205.162 459.315C204.992 458.815 204.752 458.45 204.442 458.22C204.142 457.99 203.787 457.875 203.377 457.875C202.977 457.875 202.622 457.99 202.312 458.22C202.012 458.45 201.772 458.815 201.592 459.315C201.422 459.815 201.337 460.46 201.337 461.25C201.337 462.04 201.422 462.685 201.592 463.185C201.772 463.685 202.012 464.05 202.312 464.28C202.622 464.51 202.977 464.625 203.377 464.625ZM213.558 466.68C212.698 466.68 211.928 466.47 211.248 466.05C210.568 465.62 210.033 465 209.643 464.19C209.253 463.38 209.058 462.4 209.058 461.25C209.058 460.1 209.253 459.12 209.643 458.31C210.033 457.5 210.568 456.885 211.248 456.465C211.928 456.035 212.698 455.82 213.558 455.82C214.428 455.82 215.198 456.035 215.868 456.465C216.548 456.885 217.083 457.5 217.473 458.31C217.863 459.12 218.058 460.1 218.058 461.25C218.058 462.4 217.863 463.38 217.473 464.19C217.083 465 216.548 465.62 215.868 466.05C215.198 466.47 214.428 466.68 213.558 466.68ZM213.558 464.625C213.968 464.625 214.323 464.51 214.623 464.28C214.933 464.05 215.173 463.685 215.343 463.185C215.523 462.685 215.613 462.04 215.613 461.25C215.613 460.46 215.523 459.815 215.343 459.315C215.173 458.815 214.933 458.45 214.623 458.22C214.323 457.99 213.968 457.875 213.558 457.875C213.158 457.875 212.803 457.99 212.493 458.22C212.193 458.45 211.953 458.815 211.773 459.315C211.603 459.815 211.518 460.46 211.518 461.25C211.518 462.04 211.603 462.685 211.773 463.185C211.953 463.685 212.193 464.05 212.493 464.28C212.803 464.51 213.158 464.625 213.558 464.625ZM219.09 466.5V464.925L223.14 461.1C223.46 460.81 223.695 460.55 223.845 460.32C223.995 460.09 224.095 459.88 224.145 459.69C224.205 459.5 224.235 459.325 224.235 459.165C224.235 458.745 224.09 458.425 223.8 458.205C223.52 457.975 223.105 457.86 222.555 457.86C222.115 457.86 221.705 457.945 221.325 458.115C220.955 458.285 220.64 458.55 220.38 458.91L218.61 457.77C219.01 457.17 219.57 456.695 220.29 456.345C221.01 455.995 221.84 455.82 222.78 455.82C223.56 455.82 224.24 455.95 224.82 456.21C225.41 456.46 225.865 456.815 226.185 457.275C226.515 457.735 226.68 458.285 226.68 458.925C226.68 459.265 226.635 459.605 226.545 459.945C226.465 460.275 226.295 460.625 226.035 460.995C225.785 461.365 225.415 461.78 224.925 462.24L221.565 465.405L221.1 464.52H227.025V466.5H219.09ZM229.647 466.5V456.9L230.697 457.95H227.547V456H232.077V466.5H229.647ZM233.811 466.5V464.925L237.861 461.1C238.181 460.81 238.416 460.55 238.566 460.32C238.716 460.09 238.816 459.88 238.866 459.69C238.926 459.5 238.956 459.325 238.956 459.165C238.956 458.745 238.811 458.425 238.521 458.205C238.241 457.975 237.826 457.86 237.276 457.86C236.836 457.86 236.426 457.945 236.046 458.115C235.676 458.285 235.361 458.55 235.101 458.91L233.331 457.77C233.731 457.17 234.291 456.695 235.011 456.345C235.731 455.995 236.561 455.82 237.501 455.82C238.281 455.82 238.961 455.95 239.541 456.21C240.131 456.46 240.586 456.815 240.906 457.275C241.236 457.735 241.401 458.285 241.401 458.925C241.401 459.265 241.356 459.605 241.266 459.945C241.186 460.275 241.016 460.625 240.756 460.995C240.506 461.365 240.136 461.78 239.646 462.24L236.286 465.405L235.821 464.52H241.746V466.5H233.811ZM249.949 469.59C248.869 469.59 247.889 469.415 247.009 469.065C246.129 468.725 245.369 468.245 244.729 467.625C244.099 467.005 243.609 466.275 243.259 465.435C242.919 464.595 242.749 463.68 242.749 462.69C242.749 461.71 242.919 460.805 243.259 459.975C243.609 459.145 244.104 458.42 244.744 457.8C245.384 457.18 246.149 456.7 247.039 456.36C247.929 456.02 248.919 455.85 250.009 455.85C251.059 455.85 252.019 456.015 252.889 456.345C253.759 456.665 254.509 457.12 255.139 457.71C255.769 458.3 256.254 458.995 256.594 459.795C256.934 460.585 257.104 461.45 257.104 462.39C257.104 463.28 256.974 464.04 256.714 464.67C256.464 465.3 256.109 465.78 255.649 466.11C255.189 466.44 254.649 466.605 254.029 466.605C253.349 466.605 252.809 466.405 252.409 466.005C252.009 465.605 251.809 465.02 251.809 464.25V463.56L251.854 462.75L251.719 460.575V459.135H253.759V463.995C253.759 464.355 253.829 464.605 253.969 464.745C254.109 464.885 254.279 464.955 254.479 464.955C254.709 464.955 254.904 464.865 255.064 464.685C255.234 464.505 255.364 464.23 255.454 463.86C255.544 463.48 255.589 463 255.589 462.42C255.589 461.66 255.454 460.965 255.184 460.335C254.924 459.705 254.544 459.16 254.044 458.7C253.554 458.24 252.964 457.89 252.274 457.65C251.594 457.4 250.839 457.275 250.009 457.275C249.179 457.275 248.419 457.41 247.729 457.68C247.039 457.95 246.449 458.33 245.959 458.82C245.469 459.3 245.089 459.87 244.819 460.53C244.559 461.19 244.429 461.91 244.429 462.69C244.429 463.49 244.559 464.225 244.819 464.895C245.079 465.555 245.449 466.125 245.929 466.605C246.419 467.095 247.004 467.475 247.684 467.745C248.364 468.015 249.119 468.15 249.949 468.15C250.429 468.15 250.924 468.095 251.434 467.985C251.944 467.885 252.434 467.72 252.904 467.49L253.384 468.87C252.924 469.1 252.384 469.275 251.764 469.395C251.154 469.525 250.549 469.59 249.949 469.59ZM249.409 466.605C248.769 466.605 248.184 466.45 247.654 466.14C247.134 465.82 246.719 465.375 246.409 464.805C246.099 464.225 245.944 463.56 245.944 462.81C245.944 462.06 246.094 461.4 246.394 460.83C246.704 460.26 247.119 459.82 247.639 459.51C248.169 459.19 248.759 459.03 249.409 459.03C250.069 459.03 250.634 459.18 251.104 459.48C251.574 459.78 251.934 460.21 252.184 460.77C252.434 461.33 252.559 462.01 252.559 462.81C252.559 463.6 252.439 464.28 252.199 464.85C251.959 465.42 251.604 465.855 251.134 466.155C250.674 466.455 250.099 466.605 249.409 466.605ZM249.874 464.88C250.234 464.88 250.554 464.8 250.834 464.64C251.124 464.47 251.349 464.23 251.509 463.92C251.669 463.61 251.749 463.24 251.749 462.81C251.749 462.37 251.669 462 251.509 461.7C251.349 461.4 251.124 461.17 250.834 461.01C250.554 460.85 250.234 460.77 249.874 460.77C249.514 460.77 249.194 460.85 248.914 461.01C248.634 461.17 248.414 461.405 248.254 461.715C248.094 462.015 248.014 462.38 248.014 462.81C248.014 463.24 248.094 463.61 248.254 463.92C248.414 464.22 248.634 464.455 248.914 464.625C249.194 464.795 249.514 464.88 249.874 464.88ZM262.566 469.53C261.806 469.53 261.071 469.435 260.361 469.245C259.661 469.065 259.076 468.79 258.606 468.42L259.536 466.74C259.876 467.02 260.306 467.24 260.826 467.4C261.356 467.57 261.876 467.655 262.386 467.655C263.216 467.655 263.816 467.47 264.186 467.1C264.566 466.73 264.756 466.18 264.756 465.45V464.235L264.906 462.21L264.876 460.17V458.43H267.096V465.15C267.096 466.65 266.706 467.755 265.926 468.465C265.146 469.175 264.026 469.53 262.566 469.53ZM262.206 466.11C261.456 466.11 260.776 465.95 260.166 465.63C259.566 465.3 259.081 464.845 258.711 464.265C258.351 463.675 258.171 462.99 258.171 462.21C258.171 461.42 258.351 460.735 258.711 460.155C259.081 459.565 259.566 459.11 260.166 458.79C260.776 458.47 261.456 458.31 262.206 458.31C262.886 458.31 263.486 458.45 264.006 458.73C264.526 459 264.931 459.425 265.221 460.005C265.511 460.575 265.656 461.31 265.656 462.21C265.656 463.1 265.511 463.835 265.221 464.415C264.931 464.985 264.526 465.41 264.006 465.69C263.486 465.97 262.886 466.11 262.206 466.11ZM262.671 464.19C263.081 464.19 263.446 464.11 263.766 463.95C264.086 463.78 264.336 463.545 264.516 463.245C264.696 462.945 264.786 462.6 264.786 462.21C264.786 461.81 264.696 461.465 264.516 461.175C264.336 460.875 264.086 460.645 263.766 460.485C263.446 460.315 263.081 460.23 262.671 460.23C262.261 460.23 261.896 460.315 261.576 460.485C261.256 460.645 261.001 460.875 260.811 461.175C260.631 461.465 260.541 461.81 260.541 462.21C260.541 462.6 260.631 462.945 260.811 463.245C261.001 463.545 261.256 463.78 261.576 463.95C261.896 464.11 262.261 464.19 262.671 464.19ZM279.609 458.31C280.249 458.31 280.814 458.44 281.304 458.7C281.804 458.95 282.194 459.34 282.474 459.87C282.764 460.39 282.909 461.06 282.909 461.88V466.5H280.569V462.24C280.569 461.59 280.434 461.11 280.164 460.8C279.894 460.49 279.514 460.335 279.024 460.335C278.684 460.335 278.379 460.415 278.109 460.575C277.839 460.725 277.629 460.955 277.479 461.265C277.329 461.575 277.254 461.97 277.254 462.45V466.5H274.914V462.24C274.914 461.59 274.779 461.11 274.509 460.8C274.249 460.49 273.874 460.335 273.384 460.335C273.044 460.335 272.739 460.415 272.469 460.575C272.199 460.725 271.989 460.955 271.839 461.265C271.689 461.575 271.614 461.97 271.614 462.45V466.5H269.274V458.43H271.509V460.635L271.089 459.99C271.369 459.44 271.764 459.025 272.274 458.745C272.794 458.455 273.384 458.31 274.044 458.31C274.784 458.31 275.429 458.5 275.979 458.88C276.539 459.25 276.909 459.82 277.089 460.59L276.264 460.365C276.534 459.735 276.964 459.235 277.554 458.865C278.154 458.495 278.839 458.31 279.609 458.31ZM289.957 466.5V464.925L289.807 464.58V461.76C289.807 461.26 289.652 460.87 289.342 460.59C289.042 460.31 288.577 460.17 287.947 460.17C287.517 460.17 287.092 460.24 286.672 460.38C286.262 460.51 285.912 460.69 285.622 460.92L284.782 459.285C285.222 458.975 285.752 458.735 286.372 458.565C286.992 458.395 287.622 458.31 288.262 458.31C289.492 458.31 290.447 458.6 291.127 459.18C291.807 459.76 292.147 460.665 292.147 461.895V466.5H289.957ZM287.497 466.62C286.867 466.62 286.327 466.515 285.877 466.305C285.427 466.085 285.082 465.79 284.842 465.42C284.602 465.05 284.482 464.635 284.482 464.175C284.482 463.695 284.597 463.275 284.827 462.915C285.067 462.555 285.442 462.275 285.952 462.075C286.462 461.865 287.127 461.76 287.947 461.76H290.092V463.125H288.202C287.652 463.125 287.272 463.215 287.062 463.395C286.862 463.575 286.762 463.8 286.762 464.07C286.762 464.37 286.877 464.61 287.107 464.79C287.347 464.96 287.672 465.045 288.082 465.045C288.472 465.045 288.822 464.955 289.132 464.775C289.442 464.585 289.667 464.31 289.807 463.95L290.167 465.03C289.997 465.55 289.687 465.945 289.237 466.215C288.787 466.485 288.207 466.62 287.497 466.62ZM294.265 466.5V458.43H296.605V466.5H294.265ZM295.435 457.305C295.005 457.305 294.655 457.18 294.385 456.93C294.115 456.68 293.98 456.37 293.98 456C293.98 455.63 294.115 455.32 294.385 455.07C294.655 454.82 295.005 454.695 295.435 454.695C295.865 454.695 296.215 454.815 296.485 455.055C296.755 455.285 296.89 455.585 296.89 455.955C296.89 456.345 296.755 456.67 296.485 456.93C296.225 457.18 295.875 457.305 295.435 457.305ZM298.776 466.5V455.37H301.116V466.5H298.776ZM304.173 466.62C303.773 466.62 303.428 466.485 303.138 466.215C302.858 465.935 302.718 465.58 302.718 465.15C302.718 464.72 302.858 464.375 303.138 464.115C303.428 463.845 303.773 463.71 304.173 463.71C304.583 463.71 304.928 463.845 305.208 464.115C305.488 464.375 305.628 464.72 305.628 465.15C305.628 465.58 305.488 465.935 305.208 466.215C304.928 466.485 304.583 466.62 304.173 466.62ZM311.011 466.62C310.141 466.62 309.366 466.445 308.686 466.095C308.006 465.735 307.471 465.24 307.081 464.61C306.701 463.98 306.511 463.265 306.511 462.465C306.511 461.655 306.701 460.94 307.081 460.32C307.471 459.69 308.006 459.2 308.686 458.85C309.366 458.49 310.141 458.31 311.011 458.31C311.861 458.31 312.601 458.49 313.231 458.85C313.861 459.2 314.326 459.705 314.626 460.365L312.811 461.34C312.601 460.96 312.336 460.68 312.016 460.5C311.706 460.32 311.366 460.23 310.996 460.23C310.596 460.23 310.236 460.32 309.916 460.5C309.596 460.68 309.341 460.935 309.151 461.265C308.971 461.595 308.881 461.995 308.881 462.465C308.881 462.935 308.971 463.335 309.151 463.665C309.341 463.995 309.596 464.25 309.916 464.43C310.236 464.61 310.596 464.7 310.996 464.7C311.366 464.7 311.706 464.615 312.016 464.445C312.336 464.265 312.601 463.98 312.811 463.59L314.626 464.58C314.326 465.23 313.861 465.735 313.231 466.095C312.601 466.445 311.861 466.62 311.011 466.62ZM319.711 466.62C318.851 466.62 318.086 466.44 317.416 466.08C316.756 465.72 316.231 465.23 315.841 464.61C315.461 463.98 315.271 463.265 315.271 462.465C315.271 461.655 315.461 460.94 315.841 460.32C316.231 459.69 316.756 459.2 317.416 458.85C318.086 458.49 318.851 458.31 319.711 458.31C320.561 458.31 321.321 458.49 321.991 458.85C322.661 459.2 323.186 459.685 323.566 460.305C323.946 460.925 324.136 461.645 324.136 462.465C324.136 463.265 323.946 463.98 323.566 464.61C323.186 465.23 322.661 465.72 321.991 466.08C321.321 466.44 320.561 466.62 319.711 466.62ZM319.711 464.7C320.101 464.7 320.451 464.61 320.761 464.43C321.071 464.25 321.316 463.995 321.496 463.665C321.676 463.325 321.766 462.925 321.766 462.465C321.766 461.995 321.676 461.595 321.496 461.265C321.316 460.935 321.071 460.68 320.761 460.5C320.451 460.32 320.101 460.23 319.711 460.23C319.321 460.23 318.971 460.32 318.661 460.5C318.351 460.68 318.101 460.935 317.911 461.265C317.731 461.595 317.641 461.995 317.641 462.465C317.641 462.925 317.731 463.325 317.911 463.665C318.101 463.995 318.351 464.25 318.661 464.43C318.971 464.61 319.321 464.7 319.711 464.7ZM336.035 458.31C336.675 458.31 337.24 458.44 337.73 458.7C338.23 458.95 338.62 459.34 338.9 459.87C339.19 460.39 339.335 461.06 339.335 461.88V466.5H336.995V462.24C336.995 461.59 336.86 461.11 336.59 460.8C336.32 460.49 335.94 460.335 335.45 460.335C335.11 460.335 334.805 460.415 334.535 460.575C334.265 460.725 334.055 460.955 333.905 461.265C333.755 461.575 333.68 461.97 333.68 462.45V466.5H331.34V462.24C331.34 461.59 331.205 461.11 330.935 460.8C330.675 460.49 330.3 460.335 329.81 460.335C329.47 460.335 329.165 460.415 328.895 460.575C328.625 460.725 328.415 460.955 328.265 461.265C328.115 461.575 328.04 461.97 328.04 462.45V466.5H325.7V458.43H327.935V460.635L327.515 459.99C327.795 459.44 328.19 459.025 328.7 458.745C329.22 458.455 329.81 458.31 330.47 458.31C331.21 458.31 331.855 458.5 332.405 458.88C332.965 459.25 333.335 459.82 333.515 460.59L332.69 460.365C332.96 459.735 333.39 459.235 333.98 458.865C334.58 458.495 335.265 458.31 336.035 458.31Z" fill="white"/>
<circle cx="627.681" cy="445.233" r="20" fill="black"/>
<g filter="url(#filter1_b_12_230)">
<circle cx="627.681" cy="445.233" r="20" fill="black"/>
</g>
<path d="M627.871 447.721C629.153 447.721 630.193 446.681 630.193 445.399C630.193 444.117 629.153 443.078 627.871 443.078C626.589 443.078 625.55 444.117 625.55 445.399C625.55 446.681 626.589 447.721 627.871 447.721Z" fill="#00D8FF"/>
<path d="M627.871 450.722C625.081 450.789 622.298 450.413 619.625 449.608C618.391 449.216 617.24 448.6 616.23 447.789C615.844 447.513 615.523 447.156 615.289 446.743C615.054 446.331 614.912 445.872 614.871 445.399C614.871 443.864 616.557 442.36 619.382 441.376C622.126 440.504 624.993 440.081 627.871 440.124C630.711 440.084 633.54 440.499 636.249 441.354C637.438 441.733 638.55 442.319 639.534 443.086C639.913 443.35 640.229 443.694 640.46 444.094C640.691 444.494 640.832 444.939 640.871 445.399C640.871 446.995 638.986 448.611 635.95 449.616C633.329 450.395 630.605 450.768 627.871 450.722ZM627.871 441.235C625.117 441.198 622.375 441.6 619.747 442.425C617.147 443.332 615.982 444.573 615.982 445.397C615.982 446.258 617.234 447.613 619.985 448.554C622.541 449.321 625.203 449.678 627.871 449.611C630.486 449.658 633.093 449.304 635.602 448.562C638.457 447.616 639.757 446.259 639.757 445.399C639.71 445.104 639.603 444.822 639.441 444.571C639.28 444.319 639.068 444.104 638.819 443.939C637.939 443.258 636.945 442.738 635.884 442.403C633.292 441.589 630.587 441.195 627.871 441.235Z" fill="#00D8FF"/>
<path d="M622.597 456.978C622.164 456.988 621.736 456.883 621.356 456.673C620.027 455.906 619.566 453.694 620.124 450.755C620.739 447.943 621.806 445.248 623.281 442.776C624.665 440.296 626.438 438.053 628.53 436.133C629.453 435.292 630.517 434.622 631.673 434.152C632.091 433.956 632.547 433.855 633.009 433.855C633.471 433.855 633.927 433.956 634.345 434.152C635.728 434.949 636.186 437.389 635.54 440.522C634.906 443.181 633.867 445.728 632.461 448.074C631.126 450.524 629.409 452.748 627.376 454.66C626.421 455.534 625.311 456.223 624.105 456.693C623.622 456.872 623.112 456.968 622.597 456.978ZM624.243 443.328C622.836 445.695 621.814 448.271 621.216 450.96C620.703 453.666 621.196 455.294 621.913 455.708C622.655 456.138 624.459 455.731 626.648 453.818C628.589 451.986 630.227 449.858 631.502 447.513C632.849 445.271 633.845 442.836 634.456 440.292C635.063 437.344 634.538 435.539 633.794 435.11C633.514 435.003 633.216 434.955 632.918 434.969C632.619 434.983 632.327 435.059 632.059 435.192C631.03 435.617 630.084 436.22 629.264 436.973C627.265 438.813 625.572 440.96 624.25 443.333L624.243 443.328Z" fill="#00D8FF"/>
<path d="M633.143 456.99C631.884 456.99 630.286 456.228 628.622 454.797C626.493 452.86 624.691 450.59 623.286 448.077C621.829 445.639 620.771 442.984 620.153 440.211C619.885 438.992 619.835 437.734 620.006 436.497C620.046 436.038 620.185 435.594 620.416 435.195C620.646 434.796 620.96 434.452 621.338 434.188C622.719 433.388 625.061 434.21 627.452 436.333C629.44 438.21 631.128 440.382 632.457 442.771C633.914 445.153 634.982 447.75 635.624 450.467C635.903 451.731 635.947 453.036 635.751 454.316C635.705 454.788 635.556 455.245 635.317 455.654C635.078 456.064 634.752 456.417 634.364 456.689C633.991 456.896 633.569 457 633.143 456.99ZM624.247 447.518C625.595 449.92 627.316 452.092 629.347 453.952C631.435 455.749 633.092 456.135 633.804 455.717C634.547 455.285 635.095 453.522 634.53 450.671C633.911 448.077 632.886 445.598 631.493 443.325C630.224 441.038 628.613 438.959 626.715 437.159C624.464 435.161 622.639 434.714 621.895 435.145C621.663 435.333 621.473 435.568 621.336 435.834C621.2 436.099 621.119 436.39 621.101 436.688C620.953 437.792 621.001 438.912 621.243 439.999C621.838 442.65 622.852 445.189 624.248 447.52L624.247 447.518Z" fill="#00D8FF"/>
<path d="M662.798 447.25C660.366 439.642 666.505 432.143 674.5 432.957C680.381 433.557 684.854 438.556 684.738 444.401L684.567 452.999C684.468 457.998 680.549 462.051 675.513 462.36C670.982 462.639 666.807 459.793 665.43 455.484L662.798 447.25Z" fill="white"/>
<g clip-path="url(#clip0_12_230)">
<path d="M671.725 426.243C661.221 426.243 652.681 434.531 652.681 444.724C652.681 454.917 661.221 463.205 671.725 463.205C675.057 463.205 678.182 462.368 680.89 460.924L667.083 442.212V452.781H665.059V438.314H667.083L682.11 460.202C687.317 456.91 690.769 451.221 690.769 444.724C690.769 434.531 682.229 426.243 671.725 426.243ZM678.301 450.673L676.069 447.41V438.314H678.301V450.673Z" fill="black"/>
</g>
<circle cx="718" cy="445.233" r="20" fill="black"/>
<path d="M717.339 431.526C718.02 431.136 718.907 431.134 719.587 431.526C723.011 433.461 726.436 435.392 729.859 437.328C730.502 437.69 730.933 438.407 730.926 439.149V450.787C730.931 451.56 730.458 452.294 729.779 452.648C726.367 454.572 722.956 456.498 719.544 458.422C718.849 458.819 717.944 458.789 717.271 458.359C716.248 457.766 715.223 457.176 714.2 456.583C713.991 456.459 713.755 456.359 713.607 456.157C713.738 455.981 713.971 455.959 714.161 455.882C714.588 455.746 714.98 455.528 715.372 455.317C715.472 455.249 715.593 455.275 715.688 455.336C716.562 455.837 717.43 456.353 718.307 456.85C718.495 456.958 718.684 456.815 718.844 456.726C722.193 454.833 725.545 452.948 728.893 451.054C729.018 450.995 729.086 450.863 729.076 450.727C729.078 446.888 729.077 443.048 729.077 439.208C729.091 439.054 729.002 438.912 728.863 438.849C725.462 436.934 722.063 435.016 718.664 433.101C718.605 433.06 718.535 433.039 718.463 433.039C718.392 433.038 718.322 433.06 718.263 433.1C714.863 435.016 711.465 436.936 708.065 438.851C707.926 438.914 707.833 439.054 707.849 439.208C707.85 443.048 707.849 446.888 707.849 450.728C707.843 450.794 707.858 450.861 707.891 450.918C707.924 450.976 707.974 451.022 708.034 451.051C708.942 451.565 709.85 452.076 710.758 452.589C711.269 452.864 711.897 453.028 712.461 452.817C712.958 452.639 713.307 452.131 713.297 451.603C713.302 447.786 713.295 443.969 713.301 440.152C713.288 439.983 713.449 439.843 713.614 439.859C714.05 439.856 714.486 439.853 714.922 439.86C715.104 439.856 715.229 440.038 715.207 440.209C715.205 444.05 715.212 447.891 715.204 451.732C715.205 452.756 714.785 453.87 713.838 454.371C712.671 454.975 711.229 454.847 710.077 454.268C709.079 453.77 708.127 453.182 707.147 452.649C706.466 452.296 705.995 451.56 706 450.788V439.149C705.993 438.392 706.441 437.662 707.104 437.305C710.516 435.379 713.927 433.452 717.339 431.526Z" fill="#81CD39"/>
<path d="M720.315 439.588C721.803 439.492 723.396 439.532 724.735 440.265C725.772 440.826 726.346 442.005 726.365 443.157C726.336 443.312 726.173 443.398 726.025 443.387C725.593 443.387 725.161 443.393 724.73 443.384C724.547 443.392 724.44 443.223 724.417 443.061C724.293 442.51 723.993 441.964 723.474 441.698C722.678 441.3 721.755 441.32 720.886 441.328C720.252 441.361 719.571 441.416 719.034 441.789C718.622 442.071 718.496 442.641 718.643 443.1C718.782 443.43 719.163 443.536 719.474 443.634C721.267 444.103 723.167 444.057 724.926 444.674C725.655 444.926 726.367 445.415 726.616 446.177C726.942 447.199 726.8 448.421 726.072 449.241C725.483 449.916 724.624 450.284 723.768 450.483C722.628 450.737 721.446 450.744 720.288 450.631C719.2 450.507 718.068 450.221 717.228 449.48C716.51 448.856 716.159 447.884 716.194 446.946C716.202 446.788 716.36 446.677 716.512 446.69C716.946 446.687 717.381 446.686 717.816 446.691C717.99 446.679 718.118 446.829 718.127 446.992C718.207 447.517 718.405 448.069 718.863 448.38C719.746 448.95 720.855 448.911 721.867 448.927C722.705 448.89 723.646 448.878 724.33 448.324C724.691 448.008 724.798 447.48 724.7 447.025C724.595 446.641 724.193 446.462 723.848 446.345C722.078 445.785 720.156 445.988 718.403 445.355C717.691 445.103 717.003 444.628 716.73 443.897C716.348 442.862 716.523 441.582 717.326 440.789C718.109 440.001 719.24 439.697 720.315 439.588Z" fill="#81CD39"/>
<g clip-path="url(#clip1_12_230)">
<circle cx="763" cy="445.233" r="20" fill="black"/>
<path d="M769.746 442.044C768.099 434.781 764.668 432.848 763.793 431.481C763.432 430.879 763.112 430.253 762.836 429.608C762.79 430.253 762.705 430.66 762.156 431.149C761.055 432.131 756.378 435.942 755.985 444.194C755.618 451.888 761.641 456.632 762.437 457.122C763.049 457.423 763.794 457.129 764.157 456.852C767.061 454.86 771.028 449.548 769.749 442.044" fill="#10AA50"/>
<path d="M763.085 453.025C762.934 454.93 762.825 456.036 762.44 457.125C762.44 457.125 762.693 458.938 762.87 460.858H763.498C763.648 459.506 763.877 458.163 764.183 456.837C763.37 456.437 763.116 454.696 763.085 453.025Z" fill="#B8C4C2"/>
<path d="M764.182 456.838C763.36 456.459 763.123 454.681 763.086 453.025C763.289 450.294 763.349 447.553 763.264 444.815C763.221 443.379 763.284 431.509 762.91 429.771C763.166 430.36 763.461 430.931 763.793 431.48C764.668 432.848 768.1 434.781 769.746 442.044C771.028 449.535 767.082 454.833 764.182 456.838Z" fill="#12924F"/>
</g>
<defs>
<filter id="filter0_b_12_230" x="-10" y="-10" width="847" height="522" filterUnits="userSpaceOnUse" color-interpolation-filters="sRGB">
<feFlood flood-opacity="0" result="BackgroundImageFix"/>
<feGaussianBlur in="BackgroundImageFix" stdDeviation="5"/>
<feComposite in2="SourceAlpha" operator="in" result="effect1_backgroundBlur_12_230"/>
<feBlend mode="normal" in="SourceGraphic" in2="effect1_backgroundBlur_12_230" result="shape"/>
</filter>
<filter id="filter1_b_12_230" x="603.681" y="421.233" width="48" height="48" filterUnits="userSpaceOnUse" color-interpolation-filters="sRGB">
<feFlood flood-opacity="0" result="BackgroundImageFix"/>
<feGaussianBlur in="BackgroundImageFix" stdDeviation="2"/>
<feComposite in2="SourceAlpha" operator="in" result="effect1_backgroundBlur_12_230"/>
<feBlend mode="normal" in="SourceGraphic" in2="effect1_backgroundBlur_12_230" result="shape"/>
</filter>
<linearGradient id="paint0_linear_12_230" x1="798.5" y1="20.4999" x2="22.5" y2="486" gradientUnits="userSpaceOnUse">
<stop stop-color="#60FFFF"/>
<stop offset="1" stop-color="white"/>
</linearGradient>
<linearGradient id="paint1_linear_12_230" x1="567" y1="273" x2="741.5" y2="25" gradientUnits="userSpaceOnUse">
<stop stop-color="#60FFFF"/>
<stop offset="1" stop-color="#8DFFFF" stop-opacity="0"/>
</linearGradient>
<linearGradient id="paint2_linear_12_230" x1="238.679" y1="-2.94353" x2="71.2162" y2="-2.20432" gradientUnits="userSpaceOnUse">
<stop stop-color="#60FFFF"/>
<stop offset="1" stop-color="#60FFFF" stop-opacity="0"/>
</linearGradient>
<linearGradient id="paint3_linear_12_230" x1="750.262" y1="81.2586" x2="812.933" y2="227.747" gradientUnits="userSpaceOnUse">
<stop stop-color="#60FFFF"/>
<stop offset="1" stop-color="#60FFFF" stop-opacity="0"/>
</linearGradient>
<linearGradient id="paint4_linear_12_230" x1="692.402" y1="84.4998" x2="607.868" y2="248.618" gradientUnits="userSpaceOnUse">
<stop stop-color="#60FFFF"/>
<stop offset="1" stop-color="#60FFFF" stop-opacity="0"/>
</linearGradient>
<linearGradient id="paint5_linear_12_230" x1="635.6" y1="84.8312" x2="725.16" y2="242.796" gradientUnits="userSpaceOnUse">
<stop stop-color="#60FFFF"/>
<stop offset="1" stop-color="#60FFFF" stop-opacity="0"/>
</linearGradient>
<clipPath id="clip0_12_230">
<rect width="38.0879" height="36.9618" fill="white" transform="translate(652.681 426.243)"/>
</clipPath>
<clipPath id="clip1_12_230">
<rect width="40" height="40" fill="white" transform="translate(743 425.233)"/>
</clipPath>
</defs>
</svg>
